<?xml version="1.0" encoding="UTF-8"?>
<svg viewBox="0 0 1024 1024" version="1.1" xmlns="http://www.w3.org/2000/svg">
  <rect width="1024" height="1024" fill="#ffffff"/>
  <path d="M746 72.7H346.3c-126.4 0-151.7 29.3-151.8 149.1 3.9-0.1 3.9 0.6 3.9 0.6h-3.3c-33.1 0-42.3 27.1-42.3 60.4 0 33.4 9.2 60.4 42.3 60.4l-0.2-1v84.2l0.2-5.2c-33.1 0-42.3 27.1-42.3 60.4 0 33.4 9.2 60.4 42.3 60.4l-0.2-6.1v92.6l0.2-8.5c-33.1 0-42.3 27-42.3 60.4s2.2 67.9 35.3 67.9l6.2-0.1c0.9 105.1 24.8 124.5 152 124.5H746c111.2 0 147.9-26.2 147.9-131.2V221.7c0-127-33.3-149-147.9-149zM683.3 519c21.7 0 33.1 11.7 34.1 33.7 1 22-10.4 35.7-37.5 35.6-15.5 0-89.3-1.9-89.3-1.9v75.8c0 22-20.9 25.9-42.8 25.9s-41.4-3.8-41.4-25.9v-75.8h-92.6c-21.7 0-33.7-11.7-33.7-33.7 0-14.6-0.3-5-0.2-6 1.7-20.5 13.2-27.6 33.9-27.6h92.6v-50.5h-92.6c-15.9 0-31.7-3.8-31.7-40.2 0-22 13.4-35.6 35.3-35.6H488l-48.2-44.6-22.5-22.7c-14.6-14.7-14.9-37.8-2-53.4 0.8-0.9 1.1-2.1 2-3 15.5-15.6 40.5-15.6 56 0l3 3 72.1 72.6 75-75.6c15.5-15.6 40.5-15.6 56 0s15.5 40.9 0 56.4l-67.9 67.2h70.6c21.9 0 35.3 13.5 35.3 35.6 0 22-12.2 40.2-34.1 40.2h-92.6V519h92.6z m0 0" fill="#f4ea2a"></path>
</svg>